<?xml version="1.0" standalone="no"?>
<!DOCTYPE svg PUBLIC "-//W3C//DTD SVG 20010904//EN"
 "http://www.w3.org/TR/2001/REC-SVG-20010904/DTD/svg10.dtd">
<svg version="1.0" xmlns="http://www.w3.org/2000/svg"
 width="512.000000pt" height="512.000000pt" viewBox="0 0 512.000000 512.000000"
 preserveAspectRatio="xMidYMid meet">
<metadata>
Created by potrace 1.14, written by Peter Selinger 2001-2017
</metadata>
<g transform="translate(0.000000,512.000000) scale(0.100000,-0.100000)"
fill="#000000" stroke="none">
<path d="M3027 5110 c-162 -41 -373 -197 -533 -396 -21 -27 -42 -51 -45 -54
-18 -16 -141 -199 -200 -299 -69 -114 -204 -381 -229 -453 -13 -35 -17 -38
-94 -58 -100 -26 -415 -120 -436 -131 -8 -4 -69 -26 -135 -50 -247 -87 -605
-250 -833 -377 -265 -149 -462 -304 -507 -398 -24 -50 -13 -108 38 -208 106
-204 330 -440 563 -593 201 -131 510 -255 722 -289 15 -2 36 -6 47 -8 131 -28
572 -28 710 0 11 3 36 7 55 10 19 3 112 19 205 36 94 16 181 32 195 34 14 2
40 6 57 9 128 22 307 22 383 0 78 -22 102 -31 140 -50 71 -37 143 -97 163
-135 26 -49 18 -139 -17 -208 -30 -58 -117 -151 -190 -202 -155 -106 -457
-211 -701 -244 -22 -3 -56 -8 -75 -11 -172 -27 -472 -35 -790 -21 -96 4 -198
9 -226 10 -49 2 -84 17 -84 38 0 15 -141 187 -212 258 -174 176 -358 315 -484
368 -97 41 -149 6 -146 -98 0 -15 14 -169 17 -190 2 -14 6 -52 10 -85 4 -33 9
-68 10 -77 25 -131 24 -560 -1 -778 -8 -68 -24 -200 -30 -244 -31 -229 39
-268 259 -142 204 117 446 327 563 491 25 36 49 65 53 65 4 0 54 -9 112 -19
101 -19 158 -28 217 -35 16 -2 62 -9 103 -15 98 -14 140 -19 224 -27 39 -3 81
-7 95 -10 14 -2 63 -7 110 -10 47 -3 101 -7 120 -9 219 -23 679 -23 940 0 212
19 491 83 727 165 202 71 442 186 568 273 22 15 43 27 48 27 5 0 28 -14 53
-31 102 -70 223 -110 314 -104 74 5 96 19 114 72 16 45 19 195 5 267 -4 22
-17 91 -29 151 l-21 110 35 77 c97 209 128 353 130 603 1 224 -8 315 -49 478
-152 596 -619 1044 -1315 1259 -52 16 -102 30 -110 32 -61 12 -65 16 -122 134
-165 338 -224 560 -233 874 -4 153 -16 198 -54 214 -27 11 -164 13 -204 4z"/>
</g>
</svg>
